<?xml version="1.0" standalone="no"?><!DOCTYPE svg PUBLIC "-//W3C//DTD SVG 1.1//EN" "http://www.w3.org/Graphics/SVG/1.1/DTD/svg11.dtd"><svg t="1680865750923" class="icon" viewBox="0 0 1024 1024" version="1.1" xmlns="http://www.w3.org/2000/svg" p-id="5299" xmlns:xlink="http://www.w3.org/1999/xlink" width="32" height="32"><path d="M169.97 711.45s20.35 25.48 155.99-4.16c135.64-29.64 145.78 22.08 237.05 16 91.27-6.08 146.95-31.44 223.1-31.44 51.72 0 74.8 5.17 79.87 9.54C871.04 705.76 735.16 920 512 913.55c-280.92-8.12-342.03-202.1-342.03-202.1z" fill="#1296db" opacity=".5" p-id="5300"></path><path d="M512 104c-224.4 0-408 183.6-408 408s183.6 408 408 408 408-183.6 408-408-183.6-408-408-408z m0 787.52c-208.72 0-379.52-170.8-379.52-379.52S303.28 132.48 512 132.48 891.52 303.28 891.52 512 720.72 891.52 512 891.52z" fill="#1296db" p-id="5301"></path><path d="M335.68 437.12c-39.92 0-72.32 32.4-72.32 72.32v45.2c0 39.92 32.4 72.32 72.32 72.32h352.64c39.92 0 72.32-32.4 72.32-72.32v-45.2c0-39.92-32.4-72.32-72.32-72.32H335.68z m0-27.2h352.64c54.96 0 99.44 44.56 99.44 99.44v45.2c0 54.96-44.56 99.44-99.44 99.44H335.68c-54.96 0-99.44-44.56-99.44-99.44v-45.2c0-54.88 44.48-99.44 99.44-99.44z m0 0" fill="#1296db" p-id="5302"></path><path d="M358.88 512c0 18.23 9.73 35.09 25.52 44.2a51.027 51.027 0 0 0 51.04 0 51.05 51.05 0 0 0 25.52-44.2c0-28.19-22.85-51.04-51.04-51.04-28.19 0-51.04 22.85-51.04 51.04z m0 0M563.04 512c0 28.19 22.85 51.04 51.04 51.04 28.19 0 51.04-22.85 51.04-51.04s-22.85-51.04-51.04-51.04c-28.19 0-51.04 22.85-51.04 51.04z m0 0M245.28 473.28V590.8H227.2c-24.96 0-45.2-20.24-45.2-45.2v-27.12c0-24.96 20.24-45.2 45.2-45.2h18.08z m533.44 0V590.8h18.08c24.96 0 45.2-20.24 45.2-45.2v-27.12c0-24.96-20.24-45.2-45.2-45.2h-18.08z m0 0" fill="#1296db" p-id="5303"></path></svg>