<?xml version="1.0" standalone="no"?><!DOCTYPE svg PUBLIC "-//W3C//DTD SVG 1.1//EN" "http://www.w3.org/Graphics/SVG/1.1/DTD/svg11.dtd"><svg t="1680865930539" class="icon" viewBox="0 0 1024 1024" version="1.1" xmlns="http://www.w3.org/2000/svg" p-id="6348" xmlns:xlink="http://www.w3.org/1999/xlink" width="32" height="32"><path d="M512 148.5c49.1 0 96.7 9.6 141.5 28.5 43.3 18.3 82.2 44.5 115.6 77.9 33.4 33.4 59.6 72.3 77.9 115.6 18.9 44.8 28.5 92.4 28.5 141.5s-9.6 96.7-28.5 141.5c-18.3 43.3-44.5 82.2-77.9 115.6-33.4 33.4-72.3 59.6-115.6 77.9-44.8 18.9-92.4 28.5-141.5 28.5s-96.7-9.6-141.5-28.5c-43.3-18.3-82.2-44.5-115.6-77.9-33.4-33.4-59.6-72.3-77.9-115.6-18.9-44.8-28.5-92.4-28.5-141.5s9.6-96.7 28.5-141.5c18.3-43.3 44.5-82.2 77.9-115.6s72.3-59.6 115.6-77.9c44.8-18.9 92.4-28.5 141.5-28.5m0-50C283.6 98.5 98.5 283.6 98.5 512S283.6 925.5 512 925.5 925.5 740.4 925.5 512 740.4 98.5 512 98.5z" p-id="6349" fill="#1296db"></path><path d="M512 401m-106 0a106 106 0 1 0 212 0 106 106 0 1 0-212 0Z" p-id="6350" fill="#1296db"></path><path d="M514.5 540.8c-105.1 0-195 68.8-231.6 166.2 28.2 27.9 60.4 50.1 95.9 65.9 40.2 18 83 27.1 127.1 27.1s86.9-9.1 127.1-27.1c38.9-17.4 73.8-42.3 103.8-74.1 1.4-1.5 2.7-3 4.1-4.4-39.2-90.6-125.8-153.6-226.4-153.6z" p-id="6351" fill="#1296db"></path></svg>